<svg width="64" height="64" viewBox="0 0 64 64" fill="none" xmlns="http://www.w3.org/2000/svg">
  <defs>
    <linearGradient id="wcG" x1="8" y1="4" x2="56" y2="60" gradientUnits="userSpaceOnUse">
      <stop stop-color="#4285F4" />
      <stop offset="1" stop-color="#1A6FE0" />
    </linearGradient>
  </defs>
  <rect width="64" height="64" rx="16" fill="url(#wcG)" />
  <path d="M21 12 H37 L45 20 V46 A2.2 2.2 0 0 1 42.8 48.2 H21 A2.2 2.2 0 0 1 18.8 46 V14.2 A2.2 2.2 0 0 1 21 12 Z" fill="#ffffff" />
  <path d="M37 12 L45 20 H38 A1 1 0 0 1 37 19 Z" fill="#C9DCFB" />
  <g fill="#4285F4">
    <rect x="23.5" y="24" width="16" height="2.6" rx="1.3" />
    <rect x="23.5" y="29.5" width="16" height="2.6" rx="1.3" />
    <rect x="23.5" y="35" width="10.5" height="2.6" rx="1.3" />
  </g>
  <circle cx="44" cy="44" r="9" fill="#34A853" stroke="#ffffff" stroke-width="2.4" />
  <path d="M40.4 44.2 L43 46.6 L47.8 41.6" stroke="#ffffff" stroke-width="2.2" stroke-linecap="round" stroke-linejoin="round" fill="none" />
</svg>
